<svg width="37" height="37" viewBox="0 0 37 37" fill="none" xmlns="http://www.w3.org/2000/svg">
<path d="M18.5559 17.9261C17.5736 17.9261 16.6316 17.5359 15.937 16.8413C15.2424 16.1468 14.8522 15.2047 14.8522 14.2224C14.8522 13.2401 15.2424 12.2981 15.937 11.6035C16.6316 10.9089 17.5736 10.5187 18.5559 10.5187C19.5382 10.5187 20.4803 10.9089 21.1748 11.6035C21.8694 12.2981 22.2596 13.2401 22.2596 14.2224C22.2596 14.7088 22.1638 15.1904 21.9777 15.6398C21.7916 16.0891 21.5188 16.4974 21.1748 16.8413C20.8309 17.1853 20.4226 17.4581 19.9733 17.6442C19.5239 17.8303 19.0423 17.9261 18.5559 17.9261ZM18.5559 3.85205C15.8055 3.85205 13.1678 4.94464 11.223 6.88946C9.27814 8.83428 8.18555 11.472 8.18555 14.2224C8.18555 22.0002 18.5559 33.4817 18.5559 33.4817C18.5559 33.4817 28.9263 22.0002 28.9263 14.2224C28.9263 11.472 27.8337 8.83428 25.8889 6.88946C23.9441 4.94464 21.3063 3.85205 18.5559 3.85205Z" fill="black"/>
</svg>
