<svg width="29" height="29" viewBox="0 0 29 29" fill="none" xmlns="http://www.w3.org/2000/svg">
<path d="M14.5001 18.0948C14.339 18.0948 14.1827 18.0646 14.0313 18.0042C13.8799 17.9437 13.7542 17.8632 13.6543 17.7625L8.09596 12.2042C7.87444 11.9826 7.76367 11.7007 7.76367 11.3583C7.76367 11.016 7.87444 10.734 8.09596 10.5125C8.31749 10.291 8.59944 10.1802 8.9418 10.1802C9.28416 10.1802 9.5661 10.291 9.78763 10.5125L14.5001 15.225L19.2126 10.5125C19.4342 10.291 19.7161 10.1802 20.0585 10.1802C20.4008 10.1802 20.6828 10.291 20.9043 10.5125C21.1258 10.734 21.2366 11.016 21.2366 11.3583C21.2366 11.7007 21.1258 11.9826 20.9043 12.2042L15.346 17.7625C15.2251 17.8833 15.0942 17.9691 14.9533 18.0199C14.8123 18.0706 14.6612 18.0956 14.5001 18.0948Z" fill="black"/>
</svg>
