<svg width="85" height="85" viewBox="0 0 85 85" fill="none" xmlns="http://www.w3.org/2000/svg">
<path d="M14.6727 70.1205C12.751 70.1205 11.1053 69.4356 9.7356 68.066C8.36592 66.6963 7.68225 65.0517 7.68458 63.1323V21.2033C7.68458 19.2815 8.36942 17.6358 9.7391 16.2661C11.1088 14.8964 12.7533 14.2128 14.6727 14.2151H70.5781C72.4999 14.2151 74.1456 14.8999 75.5153 16.2696C76.885 17.6393 77.5686 19.2838 77.5663 21.2033V63.1323C77.5663 65.054 76.8815 66.6998 75.5118 68.0694C74.1421 69.4391 72.4976 70.1228 70.5781 70.1205H14.6727ZM42.6254 45.6619L14.6727 28.1914V63.1323H70.5781V28.1914L42.6254 45.6619ZM42.6254 38.6737L70.5781 21.2033H14.6727L42.6254 38.6737ZM14.6727 28.1914V21.2033V63.1323V28.1914Z" fill="white"/>
</svg>
