<svg width="27" height="27" viewBox="0 0 27 27" fill="none" xmlns="http://www.w3.org/2000/svg">
<g opacity="0.5">
<path d="M20.7641 22.5907L14.7265 16.5531C14.1874 16.9844 13.5675 17.3258 12.8667 17.5773C12.1659 17.8289 11.4202 17.9547 10.6295 17.9547C8.6709 17.9547 7.01343 17.2762 5.65712 15.9191C4.30081 14.5621 3.6223 12.9046 3.62158 10.9467C3.62158 8.9881 4.3001 7.33063 5.65712 5.97432C7.01415 4.61801 8.67162 3.9395 10.6295 3.93878C12.5882 3.93878 14.2456 4.6173 15.6019 5.97432C16.9583 7.33135 17.6368 8.98882 17.6375 10.9467C17.6375 11.7374 17.5117 12.4831 17.2601 13.1839C17.0086 13.8847 16.6672 14.5046 16.2359 15.0437L22.3005 21.1083C22.4981 21.3059 22.597 21.5485 22.597 21.836C22.597 22.1235 22.4891 22.3751 22.2735 22.5907C22.0759 22.7884 21.8243 22.8872 21.5188 22.8872C21.2133 22.8872 20.9618 22.7884 20.7641 22.5907ZM10.6295 15.7984C11.9772 15.7984 13.1229 15.3265 14.0667 14.3828C15.0104 13.439 15.4819 12.2937 15.4812 10.9467C15.4812 9.59905 15.0093 8.45334 14.0656 7.5096C13.1218 6.56586 11.9765 6.09436 10.6295 6.09507C9.28185 6.09507 8.13614 6.56694 7.1924 7.51068C6.24866 8.45442 5.77716 9.59977 5.77787 10.9467C5.77787 12.2944 6.24974 13.4401 7.19348 14.3839C8.13722 15.3276 9.28257 15.7991 10.6295 15.7984Z" fill="#7451F6"/>
</g>
</svg>
