<svg width="38" height="38" viewBox="0 0 38 38" fill="none" xmlns="http://www.w3.org/2000/svg">
<path d="M2.375 19C2.375 23.4092 4.12656 27.6379 7.24435 30.7556C10.3621 33.8734 14.5908 35.625 19 35.625C23.4092 35.625 27.6379 33.8734 30.7556 30.7556C33.8734 27.6379 35.625 23.4092 35.625 19C35.625 14.5908 33.8734 10.3621 30.7556 7.24435C27.6379 4.12656 23.4092 2.375 19 2.375C14.5908 2.375 10.3621 4.12656 7.24435 7.24435C4.12656 10.3621 2.375 14.5908 2.375 19ZM38 19C38 24.0391 35.9982 28.8718 32.435 32.435C28.8718 35.9982 24.0391 38 19 38C13.9609 38 9.12816 35.9982 5.56497 32.435C2.00178 28.8718 0 24.0391 0 19C0 13.9609 2.00178 9.12816 5.56497 5.56497C9.12816 2.00178 13.9609 0 19 0C24.0391 0 28.8718 2.00178 32.435 5.56497C35.9982 9.12816 38 13.9609 38 19ZM19.3467 11.856C16.4682 11.856 14.7701 14.041 14.7701 17.7982V20.3157C14.7701 24.0469 16.4397 26.163 19.3467 26.163C21.6719 26.163 23.2441 24.7712 23.4531 22.7952H26.5288V23.0161C26.2913 26.4551 23.313 28.8752 19.3325 28.8752C14.3664 28.8752 11.5686 25.7023 11.5686 20.3181V17.7697C11.5686 12.3999 14.421 9.1295 19.3349 9.1295C23.3272 9.1295 26.3055 11.6327 26.5288 15.238V15.447H23.4531C23.2441 13.3594 21.6291 11.856 19.3467 11.856Z" fill="black"/>
</svg>
