<svg width="36" height="37" viewBox="0 0 36 37" fill="none" xmlns="http://www.w3.org/2000/svg">
<path d="M14.7035 18.3328C13.8146 18.3328 13.0739 17.9995 12.4813 17.3328C11.8887 16.6661 11.6541 15.8884 11.7776 14.9995L12.2591 11.3698C12.4566 9.96244 13.0986 8.79553 14.185 7.86911C15.2714 6.94269 16.543 6.47997 17.9998 6.48096C19.4566 6.48096 20.7282 6.94417 21.8146 7.87059C22.901 8.79701 23.543 9.96343 23.7405 11.3698L24.222 14.9995C24.3455 15.8884 24.1109 16.6661 23.5183 17.3328C22.9257 17.9995 22.185 18.3328 21.2961 18.3328H14.7035ZM9.11091 30.1847C8.2961 30.1847 7.59832 29.8943 7.01758 29.3136C6.43684 28.7328 6.14696 28.0355 6.14795 27.2217V26.0365C6.14795 25.197 6.36425 24.4252 6.79684 23.721C7.22943 23.0168 7.80326 22.48 8.51832 22.1106C10.0492 21.3452 11.6047 20.7708 13.185 20.3876C14.7652 20.0044 16.3702 19.8133 17.9998 19.8143C19.6294 19.8143 21.2344 20.0059 22.8146 20.3891C24.3949 20.7723 25.9504 21.3461 27.4813 22.1106C28.1973 22.481 28.7717 23.0182 29.2042 23.7224C29.6368 24.4266 29.8526 25.198 29.8517 26.0365V27.2217C29.8517 28.0365 29.5613 28.7343 28.9805 29.315C28.3998 29.8958 27.7025 30.1857 26.8887 30.1847H9.11091Z" fill="black"/>
</svg>
