<svg width="37" height="37" viewBox="0 0 37 37" fill="none" xmlns="http://www.w3.org/2000/svg">
<path d="M6.70418 30.4068C5.88936 30.4068 5.19158 30.1165 4.61084 29.5357C4.0301 28.955 3.74023 28.2577 3.74121 27.4439V9.66609C3.74121 8.85128 4.03158 8.1535 4.61232 7.57276C5.19307 6.99202 5.89035 6.70214 6.70418 6.70313H30.4079C31.2227 6.70313 31.9205 6.9935 32.5012 7.57424C33.082 8.15498 33.3718 8.85226 33.3708 9.66609V27.4439C33.3708 28.2587 33.0805 28.9565 32.4997 29.5372C31.919 30.1179 31.2217 30.4078 30.4079 30.4068H6.70418ZM18.556 19.7772C18.6795 19.7772 18.8094 19.7584 18.9457 19.7209C19.082 19.6834 19.2113 19.6281 19.3338 19.555L29.8153 12.9994C30.0128 12.876 30.161 12.7214 30.2597 12.5357C30.3585 12.35 30.4079 12.1466 30.4079 11.9253C30.4079 11.4315 30.198 11.0612 29.7783 10.8142C29.3585 10.5673 28.9264 10.5797 28.482 10.8513L18.556 17.0735L8.6301 10.8513C8.18566 10.5797 7.75356 10.5737 7.33381 10.8335C6.91405 11.0933 6.70418 11.4572 6.70418 11.9253C6.70418 12.1723 6.75356 12.3886 6.85232 12.5742C6.95109 12.7599 7.09924 12.9016 7.29677 12.9994L17.7783 19.555C17.9017 19.6291 18.0316 19.6849 18.1679 19.7224C18.3042 19.7599 18.4336 19.7782 18.556 19.7772Z" fill="black"/>
</svg>
