<svg width="36" height="37" viewBox="0 0 36 37" fill="none" xmlns="http://www.w3.org/2000/svg">
<path d="M6.22206 31.7775C5.97515 31.7775 5.71589 31.7716 5.44428 31.7597C5.17268 31.7469 4.91342 31.7281 4.6665 31.7034V23.0368L12.0739 21.5553L16.3702 25.8516C18.2467 24.7158 19.9692 23.3701 21.5376 21.8145C23.105 20.259 24.4072 18.5923 25.4443 16.8145L21.2221 12.5553L22.5924 5.11084H31.2591C31.3085 5.35775 31.3332 5.61701 31.3332 5.88862V6.6664C31.3332 9.85158 30.623 12.9563 29.2028 15.9805C27.7835 19.0057 25.907 21.6911 23.5732 24.0368C21.2403 26.3824 18.5618 28.259 15.5376 29.6664C12.5124 31.0738 9.40724 31.7775 6.22206 31.7775Z" fill="black"/>
</svg>
