<svg width="122" height="30" viewBox="0 0 122 30" fill="none" xmlns="http://www.w3.org/2000/svg">
<g opacity="0.5">
<path d="M29.7641 24.5907L23.7265 18.5531C23.1874 18.9844 22.5675 19.3258 21.8667 19.5773C21.1659 19.8289 20.4202 19.9547 19.6295 19.9547C17.6709 19.9547 16.0134 19.2762 14.6571 17.9191C13.3008 16.5621 12.6223 14.9046 12.6216 12.9467C12.6216 10.9881 13.3001 9.33063 14.6571 7.97432C16.0141 6.61801 17.6716 5.9395 19.6295 5.93878C21.5882 5.93878 23.2456 6.6173 24.6019 7.97432C25.9583 9.33135 26.6368 10.9888 26.6375 12.9467C26.6375 13.7374 26.5117 14.4831 26.2601 15.1839C26.0086 15.8847 25.6672 16.5046 25.2359 17.0437L31.3005 23.1083C31.4981 23.3059 31.597 23.5485 31.597 23.836C31.597 24.1235 31.4891 24.3751 31.2735 24.5907C31.0759 24.7884 30.8243 24.8872 30.5188 24.8872C30.2133 24.8872 29.9618 24.7884 29.7641 24.5907ZM19.6295 17.7984C20.9772 17.7984 22.1229 17.3265 23.0667 16.3828C24.0104 15.439 24.4819 14.2937 24.4812 12.9467C24.4812 11.5991 24.0093 10.4533 23.0656 9.5096C22.1218 8.56586 20.9765 8.09436 19.6295 8.09507C18.2818 8.09507 17.1361 8.56694 16.1924 9.51068C15.2487 10.4544 14.7772 11.5998 14.7779 12.9467C14.7779 14.2944 15.2497 15.4401 16.1935 16.3839C17.1372 17.3276 18.2826 17.7991 19.6295 17.7984Z" fill="#7451F6"/>
</g>
<rect x="1.62424" y="1.1167" width="119.027" height="27.6005" rx="13.8003" stroke="#7451F6" stroke-width="1.72503"/>
</svg>
